PathFileType	4	(x/y/z)	S02_PSF_T05
DataRate	CameraRate	NumFrames	NumMarkers	Units	OrigDataRate	OrigDataStartFrame	OrigNumFrames
240	240	10	51	mm	240	1	410
Frame#	Time	Sternum			R.Acromium			L.Acromium			Top.Head			R.ASIS			L.ASIS			R.PSIS			L.PSIS			R.Great.Tro			L.Great.Tro			R.Iliac.Crest			L.Iliac.Crest			V.Sacral			R.Thigh.Upper.Post			R.Thigh.Lower.Ant			R.Thigh.Lower.Post			R.Thigh.Upper.Ant			R.Knee.Lat			R.Knee.Med			R.Shank.Upper.Post			R.Shank.Lower.Ant			R.Shank.Lower.Post			R.Shank.Upper.Ant			R.Ankle.Lat			R.Ankle.Med			R.Heel.Upper			R.Heel.Med			R.Heel.Lat			R.Toe.Lat			R.Toe.Med			R.Toe.Tip			L.Thigh.Upper.Post			L.Thigh.Lower.Ant			L.Thigh.Lower.Post			L.Thigh.Upper.Ant			L.Knee.Lat			L.Knee.Med			L.Shank.Upper.Post			L.Shank.Lower.Ant			L.Shank.Lower.Post			L.Shank.Upper.Ant			L.Ankle.Lat			L.Ankle.Med			L.Heel.Upper			L.Heel.Med			L.Heel.Lat			L.Toe.Lat			L.Toe.Med			L.Toe.Tip			Cervical.Spine			Back			
		X1	Y1	Z1	X2	Y2	Z2	X3	Y3	Z3	X4	Y4	Z4	X5	Y5	Z5	X6	Y6	Z6	X7	Y7	Z7	X8	Y8	Z8	X9	Y9	Z9	X10	Y10	Z10	X11	Y11	Z11	X12	Y12	Z12	X13	Y13	Z13	X14	Y14	Z14	X15	Y15	Z15	X16	Y16	Z16	X17	Y17	Z17	X18	Y18	Z18	X19	Y19	Z19	X20	Y20	Z20	X21	Y21	Z21	X22	Y22	Z22	X23	Y23	Z23	X24	Y24	Z24	X25	Y25	Z25	X26	Y26	Z26	X27	Y27	Z27	X28	Y28	Z28	X29	Y29	Z29	X30	Y30	Z30	X31	Y31	Z31	X32	Y32	Z32	X33	Y33	Z33	X34	Y34	Z34	X35	Y35	Z35	X36	Y36	Z36	X37	Y37	Z37	X38	Y38	Z38	X39	Y39	Z39	X40	Y40	Z40	X41	Y41	Z41	X42	Y42	Z42	X43	Y43	Z43	X44	Y44	Z44	X45	Y45	Z45	X46	Y46	Z46	X47	Y47	Z47	X48	Y48	Z48	X49	Y49	Z49	X50	Y50	Z50	X51	Y51	Z51	

1	0	NaN	NaN	NaN	-1601.9	1330.8	520.31	-1638.6	1337.9	231.32	-1580.2	1618.4	363.06	NaN	NaN	NaN	NaN	NaN	NaN	NaN	NaN	NaN	NaN	NaN	NaN	-1645.6	816.15	567.32	-1634.4	819.82	173.83	-1656.5	969.07	533.28	-1653.8	972.49	200.95	-1790.2	929.19	370.35	NaN	NaN	NaN	NaN	NaN	NaN	-1723.1	534.1	519.89	-1633.8	598.65	533.05	-1724.4	451.72	501.71	-1746.4	449.63	355.75	-1847.2	266.08	475.59	-1793.8	170.65	454.73	-1857.3	194.88	466.71	-1779.6	239.81	475.78	-1853.6	99.146	445.9	-1846.3	116.17	361.94	-1918	84.263	389.82	-1902.7	50.766	362.71	-1914.6	52.604	425.13	-1751	44.493	466.15	-1720.7	42.388	360.28	-1673.8	69.206	416.72	-1582	592.03	202.31	-1481.4	547.85	208.55	-1549	511.1	228.08	-1523.8	629.93	184.8	-1466	471.99	221.57	NaN	NaN	NaN	-1477	287.18	234.72	-1375.4	236.16	235.34	-1446.6	220.34	249.39	-1412.7	302	221.32	-1370.9	123.7	253.32	-1343.4	132.48	333.78	-1430.6	82.792	300.24	NaN	NaN	NaN	-1392.3	44.073	269.94	-1242.2	96.537	216.51	-1214.6	126.58	321.43	-1172.9	160.32	264.13	-1699.2	1398.1	386.99	-1778.3	1147.3	396.93
2	0.0041667	NaN	NaN	NaN	-1596.9	1329.6	519.92	-1633.3	1336.6	230.94	-1575.2	1617.3	362.5	NaN	NaN	NaN	NaN	NaN	NaN	NaN	NaN	NaN	NaN	NaN	NaN	-1641.1	815.22	567.32	-1629.2	818.28	173.94	-1652.9	968.27	533.24	-1648.5	971.21	200.61	-1785.2	928.25	369.69	NaN	NaN	NaN	-1644.2	522.48	499.88	-1719.4	533.43	519.73	-1629.5	597.76	532.88	-1721	451.05	501.63	-1742.7	448.95	355.72	-1845.2	266.38	475.62	-1791.9	170.91	454.55	-1855.5	194.93	466.66	-1777.8	239.53	475.69	-1853.5	99.485	446.02	-1845.5	116.99	361.46	-1917.7	84.675	389.85	-1902.6	51.142	362.72	-1914.6	52.963	425.13	-1750.9	44.395	466.1	-1720.6	42.242	360.27	-1673.9	69.159	416.74	-1576.5	591.15	202.17	-1475.7	547.15	209.15	-1544.1	510.45	227.99	-1518.2	629.19	185.14	-1460.7	471.35	222.08	NaN	NaN	NaN	-1470.2	286.09	234.75	-1368.3	236.22	235.82	-1439	219.59	249.6	-1406.1	301.64	221.64	-1362.4	123.76	253.75	-1335.4	132.81	334.25	-1420.3	81.488	300.14	NaN	NaN	NaN	-1382.9	43.839	270.19	-1233.8	98.51	217.33	-1206.4	128.38	322.16	-1164.9	162.9	265.4	-1694.3	1397.1	386.59	-1773.4	1146.2	396.62
3	0.0083333	NaN	NaN	NaN	-1591.7	1328.5	519.49	-1627.9	1335.1	230.52	-1570	1616.1	361.91	NaN	NaN	NaN	NaN	NaN	NaN	NaN	NaN	NaN	NaN	NaN	NaN	-1636.4	814.24	567.31	-1623.8	816.71	174.05	-1649.2	967.45	533.21	-1643	969.88	200.24	-1780	927.27	369.02	NaN	NaN	NaN	-1638.7	522.36	498.77	-1715.5	532.73	519.56	-1624.9	596.83	532.69	-1717.4	450.34	501.54	-1738.8	448.21	355.68	-1843.1	266.7	475.66	-1789.9	171.16	454.36	-1853.6	194.99	466.61	-1775.8	239.24	475.6	-1853.5	99.858	446.13	-1844.6	117.83	361	-1917.5	85.133	389.88	-1902.5	51.565	362.73	-1914.5	53.361	425.13	-1750.7	44.292	466.05	-1720.5	42.094	360.26	-1674.1	69.115	416.77	-1570.8	590.24	202.02	-1469.8	546.45	209.73	-1538.9	509.77	227.89	-1512.3	628.44	185.49	-1455.1	470.68	222.59	NaN	NaN	NaN	-1463.1	284.98	234.77	-1361	236.2	236.32	-1431.2	218.8	249.82	-1399.3	301.22	221.98	-1353.7	123.75	254.2	-1327.3	133.04	334.74	-1409.7	80.078	300.05	NaN	NaN	NaN	-1373.3	43.545	270.45	-1225.2	100.38	218.2	-1198.2	130.05	322.97	-1156.9	165.36	266.76	-1689.2	1396.1	386.16	-1768.3	1145.1	396.3
4	0.0125	NaN	NaN	NaN	-1586.3	1327.3	519.04	-1622.3	1333.7	230.08	-1564.6	1614.9	361.29	NaN	NaN	NaN	NaN	NaN	NaN	NaN	NaN	NaN	NaN	NaN	NaN	-1631.5	813.23	567.31	-1618.2	815.13	174.15	-1645.3	966.61	533.17	-1637.3	968.51	199.86	-1774.6	926.25	368.33	NaN	NaN	NaN	-1633.1	522.19	497.67	-1711.4	531.98	519.4	-1620.2	595.89	532.47	-1713.6	449.58	501.43	-1734.7	447.42	355.65	-1840.8	267.04	475.68	-1787.8	171.41	454.19	-1851.6	195.06	466.56	-1773.8	238.95	475.5	-1853.4	100.27	446.25	-1843.7	118.68	360.55	-1917.2	85.643	389.93	-1902.4	52.044	362.74	-1914.4	53.804	425.13	-1750.6	44.184	466	-1720.4	41.945	360.25	-1674.2	69.072	416.81	-1564.8	589.33	201.85	-1463.6	545.78	210.27	-1533.4	509.07	227.77	-1506.2	627.69	185.86	-1449.3	469.99	223.11	NaN	NaN	NaN	-1456	283.86	234.8	-1353.6	236.11	236.83	-1423.3	217.97	250.04	-1392.4	300.75	222.34	-1345	123.65	254.67	-1319.2	133.14	335.22	-1399	78.564	299.96	NaN	NaN	NaN	-1363.7	43.185	270.7	-1216.7	102.09	219.14	-1189.9	131.55	323.87	-1148.8	167.62	268.22	-1684	1395	385.71	-1763	1144	395.95
5	0.016667	NaN	NaN	NaN	-1580.7	1326.1	518.57	-1616.5	1332.2	229.61	-1559.1	1613.7	360.65	NaN	NaN	NaN	NaN	NaN	NaN	NaN	NaN	NaN	NaN	NaN	NaN	-1626.5	812.18	567.29	-1612.4	813.55	174.25	-1641.3	965.76	533.13	-1631.4	967.1	199.48	-1769	925.19	367.64	NaN	NaN	NaN	-1627.3	521.98	496.6	-1707.2	531.2	519.22	-1615.3	594.93	532.23	-1709.7	448.78	501.31	-1730.4	446.57	355.62	-1838.5	267.41	475.71	-1785.8	171.63	454.01	-1849.4	195.16	466.5	-1771.7	238.65	475.4	-1853.3	100.72	446.38	-1842.9	119.54	360.12	-1917	86.211	389.99	-1902.3	52.584	362.76	-1914.2	54.299	425.14	-1750.4	44.072	465.94	-1720.3	41.798	360.23	-1674.4	69.025	416.85	-1558.6	588.4	201.67	-1457.1	545.16	210.75	-1527.6	508.34	227.64	-1499.9	626.96	186.23	-1443.3	469.28	223.62	NaN	NaN	NaN	-1448.8	282.73	234.83	-1346.1	235.93	237.36	-1415.5	217.11	250.26	-1385.4	300.22	222.71	-1336.3	123.45	255.15	-1311.3	133.09	335.71	-1388.4	76.953	299.88	NaN	NaN	NaN	-1354.4	42.749	270.94	-1208.2	103.59	220.14	-1181.8	132.82	324.85	-1140.8	169.61	269.78	-1678.5	1393.9	385.22	-1757.5	1142.9	395.59
6	0.020833	NaN	NaN	NaN	-1575	1324.9	518.06	-1610.7	1330.8	229.12	-1553.5	1612.5	359.98	NaN	NaN	NaN	NaN	NaN	NaN	NaN	NaN	NaN	NaN	NaN	NaN	-1621.3	811.11	567.28	-1606.6	812.01	174.34	-1637.3	964.91	533.09	-1625.4	965.67	199.08	-1763.3	924.09	366.95	NaN	NaN	NaN	-1621.5	521.7	495.59	-1702.9	530.39	519.05	-1610.2	593.97	531.97	-1705.6	447.94	501.17	-1725.9	445.67	355.59	-1836.1	267.8	475.72	-1783.7	171.85	453.86	-1847.2	195.27	466.44	-1769.6	238.35	475.29	-1853.1	101.22	446.5	-1842	120.4	359.72	-1916.7	86.845	390.07	-1902.1	53.194	362.79	-1914.1	54.852	425.17	-1750.3	43.957	465.89	-1720.2	41.653	360.22	-1674.5	68.966	416.9	-1552.3	587.49	201.48	-1450.3	544.58	211.18	-1521.6	507.59	227.5	-1493.5	626.23	186.61	-1437.1	468.56	224.12	NaN	NaN	NaN	-1441.6	281.61	234.86	-1338.7	235.63	237.89	-1407.7	216.21	250.48	-1378.4	299.62	223.1	-1327.9	123.14	255.63	-1303.5	132.86	336.19	-1377.8	75.252	299.82	NaN	NaN	NaN	-1345.3	42.231	271.16	-1199.9	104.82	221.2	-1173.8	133.81	325.93	-1132.9	171.27	271.42	-1672.9	1392.8	384.71	-1752	1141.7	395.2
7	0.025	NaN	NaN	NaN	-1569.3	1323.7	517.53	-1604.7	1329.3	228.61	-1547.8	1611.2	359.3	NaN	NaN	NaN	NaN	NaN	NaN	NaN	NaN	NaN	NaN	NaN	NaN	-1616.1	810.01	567.25	-1600.6	810.5	174.42	-1633.1	964.04	533.05	-1619.3	964.23	198.68	-1757.5	922.98	366.27	NaN	NaN	NaN	-1615.5	521.37	494.63	-1698.4	529.54	518.88	-1604.9	593.01	531.67	-1701.3	447.07	501.02	-1721.2	444.72	355.56	-1833.5	268.21	475.73	-1781.6	172.04	453.71	-1844.8	195.41	466.38	-1767.3	238.05	475.17	-1852.8	101.76	446.63	-1841.2	121.25	359.36	-1916.4	87.552	390.16	-1902	53.881	362.83	-1914	55.47	425.2	-1750.1	43.839	465.83	-1720.1	41.512	360.21	-1674.6	68.888	416.94	-1545.8	586.58	201.27	-1443.4	544.05	211.53	-1515.4	506.82	227.35	-1486.9	625.54	186.99	-1430.8	467.82	224.6	NaN	NaN	NaN	-1434.4	280.51	234.88	-1331.4	235.23	238.44	-1400.1	215.29	250.7	-1371.3	298.94	223.5	-1319.6	122.7	256.12	-1296.1	132.44	336.66	-1367.6	73.476	299.77	NaN	NaN	NaN	-1336.5	41.624	271.38	-1191.8	105.74	222.32	-1166.1	134.48	327.09	-1125.2	172.54	273.15	-1667.3	1391.6	384.16	-1746.3	1140.5	394.79
8	0.029167	NaN	NaN	NaN	-1563.5	1322.5	516.98	-1598.7	1327.9	228.07	-1542	1610	358.59	NaN	NaN	NaN	NaN	NaN	NaN	NaN	NaN	NaN	NaN	NaN	NaN	-1610.7	808.89	567.22	-1594.6	809.06	174.49	-1628.8	963.18	533	-1613.1	962.79	198.28	-1751.6	921.84	365.6	NaN	NaN	NaN	-1609.5	520.99	493.74	-1693.8	528.66	518.7	-1599.5	592.07	531.34	-1697	446.17	500.85	-1716.3	443.71	355.53	-1830.9	268.65	475.73	-1779.6	172.22	453.58	-1842.3	195.57	466.32	-1765	237.76	475.06	-1852.5	102.36	446.77	-1840.4	122.09	359.06	-1916	88.34	390.28	-1901.8	54.654	362.87	-1913.8	56.163	425.24	-1749.9	43.719	465.78	-1720	41.377	360.2	-1674.7	68.778	416.98	-1539.1	585.68	201.06	-1436.2	543.59	211.81	-1509	506.04	227.19	-1480.2	624.86	187.37	-1424.3	467.08	225.06	NaN	NaN	NaN	-1427.3	279.42	234.9	-1324.2	234.69	238.99	-1392.8	214.33	250.92	-1364.4	298.2	223.92	-1311.8	122.14	256.61	-1289	131.83	337.13	-1357.7	71.645	299.74	NaN	NaN	NaN	-1328.2	40.924	271.58	-1184.1	106.3	223.49	-1158.8	134.79	328.33	-1117.8	173.37	274.95	-1661.5	1390.5	383.59	-1740.5	1139.3	394.37
9	0.033333	NaN	NaN	NaN	-1557.6	1321.3	516.4	-1592.6	1326.4	227.5	-1536.1	1608.8	357.87	NaN	NaN	NaN	NaN	NaN	NaN	NaN	NaN	NaN	NaN	NaN	NaN	-1605.3	807.75	567.18	-1588.5	807.68	174.54	-1624.4	962.3	532.94	-1606.9	961.36	197.88	-1745.7	920.68	364.95	NaN	NaN	NaN	-1603.5	520.57	492.89	-1689	527.76	518.52	-1594	591.13	530.98	-1692.5	445.24	500.67	-1711.3	442.65	355.5	-1828.2	269.13	475.73	-1777.5	172.39	453.47	-1839.6	195.75	466.25	-1762.6	237.48	474.94	-1852.1	103.01	446.91	-1839.6	122.92	358.81	-1915.6	89.217	390.41	-1901.7	55.522	362.93	-1913.6	56.937	425.29	-1749.8	43.599	465.73	-1719.9	41.247	360.19	-1674.7	68.624	416.99	-1532.4	584.81	200.84	-1428.9	543.19	212	-1502.4	505.24	227.03	-1473.5	624.22	187.74	-1417.8	466.34	225.49	-1428.1	461.15	369.04	-1420.4	278.37	234.92	-1317.2	234.03	239.55	-1385.6	213.35	251.12	-1357.5	297.38	224.34	-1304.3	121.44	257.11	-1282.3	131.01	337.58	-1348.4	69.781	299.72	NaN	NaN	NaN	-1320.4	40.131	271.76	-1176.6	106.49	224.72	-1151.9	134.71	329.64	-1110.7	173.72	276.81	-1655.6	1389.3	382.98	-1734.6	1138.2	393.92
10	0.0375	NaN	NaN	NaN	-1551.7	1320.2	515.79	-1586.5	1325	226.91	-1530.2	1607.6	357.13	NaN	NaN	NaN	NaN	NaN	NaN	NaN	NaN	NaN	NaN	NaN	NaN	-1599.8	806.6	567.14	-1582.5	806.38	174.58	-1619.9	961.42	532.87	-1600.6	959.94	197.48	-1739.7	919.51	364.33	NaN	NaN	NaN	-1597.3	520.12	492.08	-1684.2	526.83	518.34	-1588.4	590.22	530.59	-1687.9	444.3	500.48	-1706.1	441.54	355.48	-1825.5	269.64	475.71	-1775.5	172.55	453.38	-1836.9	195.96	466.18	-1760.2	237.22	474.83	-1851.7	103.73	447.05	-1838.9	123.73	358.63	-1915.2	90.192	390.57	-1901.5	56.494	362.99	-1913.4	57.804	425.35	-1749.6	43.48	465.69	-1719.7	41.124	360.18	-1674.6	68.414	416.97	-1525.6	583.95	200.63	-1421.3	542.86	212.12	-1495.5	504.43	226.88	-1466.7	623.6	188.1	-1411.1	465.59	225.9	-1422.3	460.58	368.93	-1413.6	277.34	234.94	-1310.4	233.22	240.11	-1378.8	212.35	251.32	-1350.8	296.48	224.78	-1297.2	120.61	257.59	-1276	129.99	338.04	-1339.6	67.912	299.72	-1296.2	50.379	334.17	-1313.2	39.247	271.94	-1169.6	106.26	225.99	-1145.4	134.21	331.02	-1104	173.56	278.71	-1649.8	1388.2	382.35	-1728.7	1137	393.46
